<?xml version="1.0" encoding="utf-8"?>
<!-- Svg Vector Icons : http://www.onlinewebfonts.com/icon -->
<!DOCTYPE svg PUBLIC "-//W3C//DTD SVG 1.1//EN" "http://www.w3.org/Graphics/SVG/1.1/DTD/svg11.dtd">
<svg version="1.1" xmlns="http://www.w3.org/2000/svg" xmlns:xlink="http://www.w3.org/1999/xlink" x="0px" y="0px" viewBox="0 0 1000 1000" enable-background="new 0 0 1000 1000" xml:space="preserve">
<metadata> Svg Vector Icons : http://www.onlinewebfonts.com/icon </metadata>
<g><path d="M123.1,189.4c0-16.3,12.3-28.7,28.7-28.7h159.8V47.7H154.1C75.3,47.7,10,110.6,10,189.4v159.8h113.1V189.4z"/><path d="M847.7,47.7H688.5v113.1h158.4c16.3,0,30.1,12.3,30.1,28.7v159.8H990V189.4C990,110.6,926.5,47.7,847.7,47.7z"/><path d="M876.9,808.2c0,16.3-12.3,28.7-28.7,28.7H688.5v115.4h159.8c78.8,0,141.7-65.3,141.7-144.1V650.8H876.9V808.2z"/><path d="M151.7,836.9c-16.3,0-28.7-12.3-28.7-28.7V650.8H10v157.4c0,78.8,65.3,144.1,144.1,144.1h157.4V836.9H151.7z"/></g>
</svg>